<?xml version="1.0" standalone="no"?>
<!DOCTYPE svg PUBLIC "-//W3C//DTD SVG 20010904//EN"
 "http://www.w3.org/TR/2001/REC-SVG-20010904/DTD/svg10.dtd">
<svg version="1.0" xmlns="http://www.w3.org/2000/svg"
 width="546.000000pt" height="232.000000pt" viewBox="0 0 546.000000 232.000000"
 preserveAspectRatio="xMidYMid meet">

<g transform="translate(0.000000,232.000000) scale(0.100000,-0.100000)"
fill="#000000" stroke="none">
<path d="M645 1715 c-33 -33 -33 -78 1 -112 22 -22 32 -25 69 -21 41 5 46 3
86 -38 l43 -44 -84 -85 -84 -85 -48 47 c-39 38 -45 49 -37 65 14 25 3 72 -22
94 -27 24 -84 23 -109 -2 -11 -10 -22 -33 -26 -51 -5 -27 -1 -37 25 -64 29
-28 36 -31 74 -25 40 6 45 4 85 -37 l42 -43 -70 -69 c-39 -38 -70 -74 -70 -79
0 -5 7 -18 17 -28 15 -17 15 -20 -7 -43 -31 -33 -17 -45 15 -15 l25 24 45 -44
45 -44 -46 -47 c-43 -43 -49 -46 -85 -42 -73 10 -118 -51 -85 -115 20 -40 64
-54 111 -36 25 10 47 61 40 97 -5 28 -1 37 40 77 l45 44 37 -36 37 -37 -24
-26 c-31 -33 -18 -46 15 -15 l26 24 37 -37 36 -37 -44 -45 c-40 -41 -49 -45
-77 -40 -54 10 -102 -26 -103 -77 0 -40 9 -57 42 -74 64 -33 125 12 115 85 -4
36 -1 42 42 85 l47 46 44 -45 44 -45 -24 -25 c-30 -32 -18 -46 15 -15 23 22
26 22 43 7 10 -10 23 -17 28 -17 5 0 41 31 79 70 l69 70 43 -42 c41 -40 43
-45 37 -85 -6 -38 -3 -45 24 -73 37 -36 71 -38 108 -6 52 44 30 126 -36 141
-16 4 -37 2 -48 -4 -16 -8 -27 -2 -65 37 l-47 48 85 84 85 84 44 -43 c43 -42
45 -47 39 -87 -5 -37 -2 -46 20 -68 52 -52 137 -19 137 53 0 56 -35 85 -94 79
-42 -5 -47 -3 -87 38 l-43 44 74 75 c70 71 73 75 57 93 -22 24 -21 31 5 59 28
30 15 43 -15 15 -13 -12 -28 -22 -33 -22 -6 0 -28 18 -49 40 l-39 40 43 44
c40 41 47 44 93 42 41 -1 53 3 69 23 20 25 25 71 9 100 -5 10 -23 24 -40 31
-61 25 -118 -25 -107 -93 5 -31 1 -39 -42 -81 l-47 -46 -32 33 c-38 39 -39 44
-10 74 28 30 15 43 -15 15 -30 -29 -35 -28 -74 10 l-33 32 46 47 c40 41 51 47
75 42 45 -9 77 5 95 38 42 81 -56 158 -127 100 -20 -16 -24 -28 -23 -69 2 -46
-1 -53 -42 -93 l-44 -43 -40 39 c-22 21 -40 43 -40 49 0 5 10 20 22 33 31 33
13 42 -20 10 l-28 -27 -22 22 -22 22 -75 -74 -75 -74 -44 43 c-41 40 -43 45
-38 87 4 37 1 49 -18 69 -32 34 -82 34 -115 0z m95 -15 c11 -11 20 -29 20 -40
0 -25 -34 -60 -59 -60 -18 0 -61 43 -61 60 0 4 9 19 21 34 24 31 52 33 79 6z
m618 4 c32 -22 27 -73 -9 -93 -24 -13 -29 -13 -53 2 -34 22 -36 69 -4 91 28
20 38 20 66 0z m-113 -774 l-235 -235 -232 233 -233 232 235 235 235 235 232
-232 233 -233 -235 -235z m-691 584 c18 -18 20 -47 6 -75 -7 -13 -21 -19 -45
-19 -51 0 -73 53 -38 92 20 22 56 23 77 2z m1000 -6 c21 -30 20 -51 -3 -72
-27 -25 -72 -17 -90 15 -13 24 -13 29 2 53 22 34 69 36 91 4z m-1000 -617 c25
-27 17 -72 -15 -90 -24 -13 -29 -13 -53 2 -17 12 -26 26 -26 44 0 55 59 83 94
44z m996 -1 c11 -11 20 -29 20 -40 0 -22 -37 -60 -59 -60 -21 0 -61 40 -61 62
0 24 35 58 60 58 11 0 29 -9 40 -20z m-808 -187 c39 -35 7 -98 -48 -91 -18 2
-34 13 -43 29 -13 24 -13 29 2 53 20 30 61 35 89 9z m620 0 c35 -31 13 -93
-33 -93 -36 0 -59 19 -59 50 0 53 53 79 92 43z"/>
<path d="M878 1365 c-30 -17 -58 -62 -58 -94 0 -13 -12 -26 -34 -36 -32 -15
-66 -65 -66 -95 0 -7 7 -27 16 -45 27 -58 58 -65 268 -65 210 0 242 7 276 62
41 65 0 160 -76 174 -18 3 -35 12 -38 19 -8 22 -66 47 -95 42 -19 -4 -33 2
-53 20 -33 32 -101 40 -140 18z m126 -45 c20 -25 28 -27 68 -23 42 5 47 3 69
-26 16 -22 31 -31 51 -31 43 0 78 -40 78 -87 0 -21 -6 -45 -13 -54 -27 -35
-54 -39 -257 -39 -200 0 -201 0 -225 25 -45 44 -25 117 37 133 26 7 31 12 33
45 5 88 103 123 159 57z"/>
<path d="M2142 1538 c-11 -29 -81 -212 -156 -406 -75 -194 -136 -355 -136
-358 0 -2 36 -4 79 -4 l79 0 43 110 42 111 141 -3 141 -3 40 -107 40 -108 81
0 82 0 -51 133 c-28 72 -99 256 -157 407 l-106 275 -71 3 -71 3 -20 -53z m133
-297 c19 -51 35 -95 35 -97 0 -2 -34 -4 -75 -4 -41 0 -75 4 -75 9 0 11 57 168
66 183 9 13 9 12 49 -91z"/>
<path d="M3649 1511 c-57 -58 -23 -141 59 -141 64 0 102 56 78 115 -26 62 -89
74 -137 26z"/>
<path d="M4904 1516 c-59 -50 -21 -146 57 -146 48 0 78 26 86 72 5 32 1 41
-25 68 -38 37 -80 40 -118 6z"/>
<path d="M3190 1395 l0 -105 -35 0 -35 0 0 -55 0 -55 35 0 35 0 1 -127 c0 -71
6 -142 12 -161 16 -42 63 -91 104 -108 40 -17 203 -19 203 -3 0 6 -7 35 -16
65 l-15 54 -58 0 c-86 0 -91 9 -91 158 l0 122 75 0 75 0 0 55 0 55 -75 0 -75
0 0 105 0 105 -70 0 -70 0 0 -105z"/>
<path d="M2936 1294 c-21 -8 -45 -19 -52 -25 -11 -9 -14 -7 -14 10 0 20 -5 21
-75 21 l-75 0 0 -265 0 -265 75 0 75 0 0 159 c0 145 2 160 21 185 24 30 52 47
93 56 27 5 31 12 47 73 l17 67 -37 -1 c-20 0 -54 -7 -75 -15z"/>
<path d="M4373 1296 c-63 -20 -110 -53 -142 -99 -38 -58 -51 -99 -51 -172 0
-112 74 -215 182 -251 67 -22 158 -15 198 14 30 22 30 22 30 2 0 -18 6 -20 70
-20 l70 0 0 265 0 265 -70 0 c-69 0 -70 0 -70 -27 0 -25 -1 -25 -19 -9 -25 23
-88 45 -126 45 -16 0 -49 -6 -72 -13z m153 -145 c119 -72 54 -272 -83 -258
-58 6 -91 30 -115 84 -27 61 -18 106 32 155 33 34 43 38 86 38 30 0 61 -7 80
-19z"/>
<path d="M3630 1035 l0 -265 75 0 75 0 0 265 0 265 -75 0 -75 0 0 -265z"/>
<path d="M4890 1035 l0 -265 75 0 75 0 -2 263 -3 262 -72 3 -73 3 0 -266z"/>
<path d="M3941 906 c-33 -35 -31 -93 4 -123 58 -50 145 -13 145 62 0 77 -97
116 -149 61z"/>
</g>
</svg>
